<?xml version="1.0"?>
<svg xmlns:rdf="http://www.w3.org/1999/02/22-rdf-syntax-ns#" xmlns="http://www.w3.org/2000/svg" xmlns:cc="http://creativecommons.org/ns#" xmlns:dc="http://purl.org/dc/elements/1.1/" xmlns:svg="http://www.w3.org/2000/svg" id="svg9488" viewBox="0 0 87.891 126.55" version="1.1">
  <defs id="defs9490">
    <clipPath id="clipPath5383" clipPathUnits="userSpaceOnUse">
      <path id="path5385" d="m285.47 170.27h20.588v-31.932h-20.588v31.932z"/>
    </clipPath>
  </defs>
  <g id="layer1" transform="translate(-510.36 -471.95)">
    <g id="g4463" transform="matrix(1.25 0 0 -1.25 511.47 585.51)">
      <path id="path4465" d="m0 0s33.298 97.06 68.011 0-30.465-23.379-68.011 0" fill="#a2453a"/>
    </g>
    <g id="g4467" transform="matrix(1.25 0 0 -1.25 527.98 493.19)">
      <path id="path4469" d="m0 0s0.703-11.58-13.468-34.251 4.858-5.385 20.375 0.613h28.99s11.341-4.845 19.662-0.613-10.541 20.662-12.109 34.251" stroke="#373535" fill="#373535"/>
    </g>
    <g id="g4471" transform="matrix(1.25 0 0 -1.25 580.86 516.43)">
      <path id="path4473" d="m0 0c0-11.543-9.357-20.902-20.897-20.902-11.543 0-20.897 9.359-20.897 20.902 0 11.54 9.354 20.896 20.897 20.896 11.54 0 20.897-9.356 20.897-20.896" fill="#f5e3bb"/>
    </g>
    <g id="g4475" transform="matrix(1.25 0 0 -1.25 582.29 490.98)">
      <path id="path4477" d="m0 0c0-8.417-9.725-15.234-21.723-15.234-12.001 0-21.727 6.817-21.727 15.234 0 8.413 9.726 15.23 21.727 15.23 11.998 0 21.723-6.817 21.723-15.23" fill="#373535"/>
    </g>
    <g id="g4479" transform="matrix(1.25 0 0 -1.25 576.01 525.97)">
      <path id="path4481" d="m0 0c0-1.633-2.325-2.951-5.195-2.951s-5.199 1.318-5.199 2.951 2.329 2.955 5.199 2.955 5.195-1.322 5.195-2.955" fill="#f6c589"/>
    </g>
    <g id="g4483" transform="matrix(1.25 0 0 -1.25 546.49 525.97)">
      <path id="path4485" d="m0 0c0-1.633-2.325-2.951-5.194-2.951-2.87 0-5.196 1.318-5.196 2.951s2.326 2.955 5.196 2.955c2.869 0 5.194-1.322 5.194-2.955" fill="#f6c589"/>
    </g>
    <g id="g4487" transform="matrix(1.25 0 0 -1.25 560.42 518.42)">
      <path id="path4489" d="m0 0s4.012 5.906 9.916 0" stroke="#373535" fill="none"/>
    </g>
    <g id="g4491" transform="matrix(1.25 0 0 -1.25 549.78 518.48)">
      <path id="path4493" d="m0 0s-3.955 5.942-9.917 0.099" stroke="#373535" fill="none"/>
    </g>
    <g id="g4495" transform="matrix(1.25 0 0 -1.25 545.36 534.12)">
      <path id="path4497" d="m0 0s7.337-6.109 14.993 0" stroke="#373535" fill="none"/>
    </g>
    <g id="g4499" transform="matrix(1.25 0 0 -1.25 578.71 510.01)">
      <path id="path4501" d="m0 0c0.549 0.478 1.217 0.899 1.9 1.158 0.876 0.336 1.755 0.142 2.383-0.552 0.717-0.797 0.664-1.771 0.713-2.775 0.094-1.904-0.289-4.026-1.39-5.622-0.236-0.352-0.62-0.702-1.085-0.669-0.65 0.047-1.47 0.795-1.849 1.282" fill="#f5e3bb"/>
    </g>
    <g id="g4503" transform="matrix(1.25 0 0 -1.25 530.66 510.01)">
      <path id="path4505" d="m0 0c-0.553 0.478-1.218 0.899-1.901 1.158-0.875 0.336-1.754 0.142-2.382-0.552-0.717-0.797-0.661-1.771-0.711-2.775-0.097-1.904 0.287-4.026 1.387-5.622 0.237-0.352 0.62-0.702 1.086-0.669 0.65 0.047 1.472 0.795 1.849 1.282" fill="#f5e3bb"/>
    </g>
    <path id="path5059" d="m522.16 511.1h-3.7288v-4.89h3.7288v4.89z" fill="#00b0f0"/>
    <path id="path5061" d="m588.18 511.1h3.7288v-4.89h-3.7288v4.89z" fill="#00b0f0"/>
    <g id="g5063" transform="matrix(1.25 0 0 -1.25 529.5 505.82)">
      <path id="path5065" d="m0 0s4.206-5.258-0.526-17.351-12.092 0.527-11.041 6.31 0.001 11.041 11.567 11.041" fill="#0077bd"/>
    </g>
    <g id="g5067" transform="matrix(1.25 0 0 -1.25 524.93 506.96)">
      <path id="path5069" d="m0 0s1.981-5.942-0.495-12.709 0.766 7.437-1.6 11.775 0.706 0.552 2.095 0.934" fill="#edba54"/>
    </g>
    <g id="g5071" transform="matrix(1.25 0 0 -1.25 515.79 520.4)">
      <path id="path5073" d="m0 0s-0.961 0.616 0.099 2.489-0.37 1.307-0.937 0.124-0.517-0.912-0.172-2.637c0 0 0.616-0.887 1.01 0.024" fill="#bec0c2"/>
    </g>
    <g id="g5075" transform="matrix(1.25 0 0 -1.25 528.54 505.8)">
      <path id="path5077" d="m0 0s0.647 2.119 2.002 0.059 3.946-6.891-1.118-17.724-1.001-0.999-1.472 0.296c0 0 5.181 10.069 0.588 17.369" fill="#737577"/>
    </g>
    <g id="g5079" transform="matrix(1.25 0 0 -1.25 580.85 505.82)">
      <path id="path5081" d="m0 0s-4.205-5.258 0.526-17.351 12.093 0.527 11.041 6.31-0.001 11.041-11.567 11.041" fill="#0077bd"/>
    </g>
    <g id="g5083" transform="matrix(1.25 0 0 -1.25 585.42 506.96)">
      <path id="path5085" d="m0 0s-1.98-5.942 0.496-12.709-0.767 7.437 1.6 11.775-0.707 0.552-2.096 0.934" fill="#edba54"/>
    </g>
    <g id="g5087" transform="matrix(1.25 0 0 -1.25 594.55 520.4)">
      <path id="path5089" d="m0 0s0.961 0.616-0.099 2.489 0.37 1.307 0.937 0.124 0.517-0.912 0.173-2.637c0 0-0.616-0.887-1.011 0.024" fill="#bec0c2"/>
    </g>
    <g id="g5091" transform="matrix(1.25 0 0 -1.25 581.81 505.8)">
      <path id="path5093" d="m0 0s-0.646 2.119-2.002 0.059-3.945-6.891 1.119-17.724 1-0.999 1.471 0.296c0 0-5.18 10.069-0.588 17.369" fill="#737577"/>
    </g>
    <g id="g5095" transform="matrix(1.25 0 0 -1.25 520.79 506.15)">
      <path id="path5097" d="m0 0s24.448 43.77 56.191-0.986-27.405 50.672-56.191 0.986" fill="#0077bd"/>
    </g>
    <g id="g5099" transform="matrix(1.25 0 0 -1.25 528.15 520.48)">
      <path id="path5101" d="m0 0c1.35-2.34 0.729-5.227-1.386-6.446s-4.924-0.312-6.274 2.03c-1.349 2.34-0.729 5.225 1.387 6.444 2.114 1.221 4.923 0.313 6.273-2.028" fill="#f5e3bb"/>
    </g>
    <g id="g5103" transform="matrix(1.25 0 0 -1.25 522.96 527)">
      <path id="path5105" d="m0 0c-1.247-1.205-0.419-7.435-0.299-8.936 0.278-3.491 1.609-7.378 3.324-10.4 0.558-0.981 1.626-3.169 2.997-3.157 1.632 0.015 3.4 3.68 3.648 4.96 0.262 1.355 0.24 3.063 0.096 4.427-0.549 5.188-3.913 10.258-6.971 14.285 0 0-1.679-0.102-2.795-1.179" fill="#f5e3bb"/>
    </g>
    <g id="g5107" transform="matrix(1.25 0 0 -1.25 524.04 548.35)">
      <path id="path5109" d="m0 0s8.284 2.944 8.258 8.498 5.172-9.384 1.142-13.747-6.122-4.34-9.758 5.018" fill="#a2453a"/>
    </g>
    <g id="g5111" transform="matrix(1.25 0 0 -1.25 580.99 520.48)">
      <path id="path5113" d="m0 0c-1.35-2.34-0.729-5.227 1.387-6.446 2.115-1.219 4.924-0.312 6.273 2.03 1.35 2.34 0.729 5.225-1.387 6.444-2.114 1.221-4.923 0.313-6.273-2.028" fill="#f5e3bb"/>
    </g>
    <g id="g5115" transform="matrix(1.25 0 0 -1.25 586.19 527)">
      <path id="path5117" d="m0 0c1.247-1.205 0.419-7.435 0.3-8.936-0.279-3.491-1.61-7.378-3.324-10.4-0.559-0.981-1.627-3.169-2.998-3.157-1.632 0.015-3.401 3.68-3.648 4.96-0.263 1.355-0.24 3.063-0.097 4.427 0.549 5.188 3.914 10.258 6.971 14.285 0 0 1.68-0.102 2.796-1.179" fill="#f5e3bb"/>
    </g>
    <g id="g5119" transform="matrix(1.25 0 0 -1.25 585.11 548.35)">
      <path id="path5121" d="m0 0s-8.283 2.944-8.258 8.498-5.172-9.384-1.141-13.747 6.122-4.34 9.758 5.018" fill="#a2453a"/>
    </g>
    <g id="g5379" transform="matrix(1.25 0 0 -1.25 161.38 763.43)">
      <g id="g5387">
        <g id="g5389" opacity=".5" clip-path="url(#clipPath5383)">
          <g id="g5391" transform="translate(301.22 168.57)">
            <path id="path5393" d="m0 0s-20.081-22.111-14.891-25.722c5.189-3.61 10.83-4.512 12.41-4.512 0 0 14.666 40.613 2.481 30.234" fill="#fff"/>
          </g>
        </g>
      </g>
    </g>
  </g>
  <metadata>
    <rdf:RDF>
      <cc:Work>
        <dc:format>image/svg+xml</dc:format>
        <dc:type rdf:resource="http://purl.org/dc/dcmitype/StillImage"/>
        <cc:license rdf:resource="http://creativecommons.org/licenses/publicdomain/"/>
        <dc:publisher>
          <cc:Agent rdf:about="http://openclipart.org/">
            <dc:title>Openclipart</dc:title>
          </cc:Agent>
        </dc:publisher>
        <dc:title>Girl with headphone4</dc:title>
        <dc:date>2010-12-01T03:33:47</dc:date>
        <dc:description>Girl with headphone4</dc:description>
        <dc:source>http://openclipart.org/detail/98911/girl-with-headphone4-by-dcatcherex</dc:source>
        <dc:creator>
          <cc:Agent>
            <dc:title>dcatcherex</dc:title>
          </cc:Agent>
        </dc:creator>
        <dc:subject>
          <rdf:Bag>
            <rdf:li>anime</rdf:li>
            <rdf:li>cartoon</rdf:li>
            <rdf:li>character</rdf:li>
            <rdf:li>clip art</rdf:li>
            <rdf:li>clipart</rdf:li>
            <rdf:li>girl</rdf:li>
            <rdf:li>headphone</rdf:li>
            <rdf:li>listen</rdf:li>
            <rdf:li>music</rdf:li>
            <rdf:li>woman</rdf:li>
          </rdf:Bag>
        </dc:subject>
      </cc:Work>
      <cc:License rdf:about="http://creativecommons.org/licenses/publicdomain/">
        <cc:permits rdf:resource="http://creativecommons.org/ns#Reproduction"/>
        <cc:permits rdf:resource="http://creativecommons.org/ns#Distribution"/>
        <cc:permits rdf:resource="http://creativecommons.org/ns#DerivativeWorks"/>
      </cc:License>
    </rdf:RDF>
  </metadata>
</svg>
